HIERARCHY
ROOT base
{
	OFFSET 0.000000 0.000000 0.000000
	CHANNELS 6 Xposition Yposition Zposition Xrotation Yrotation Zrotation
	JOINT torso
	{
		OFFSET 0.000000 0.000000 0.490888
		CHANNELS 3 Xrotation Yrotation Zrotation
		JOINT head
		{
			OFFSET 0.000000 0.000000 0.382645
			CHANNELS 3 Xrotation Yrotation Zrotation
			End Site
			{
				OFFSET 0.000000 0.000000 0.175109
			}
		}
		JOINT arm.upper.left
		{
			OFFSET 0.175109 0.000000 0.324275
			CHANNELS 6 Xposition Yposition Zposition Xrotation Yrotation Zrotation
			JOINT arm.lower.left
			{
				OFFSET 0.000000 0.000000 -0.223750
				CHANNELS 3 Xrotation Yrotation Zrotation
				End Site
				{
					OFFSET 0.012971 0.000000 -0.197808
				}
			}
		}
		JOINT arm.upper.right
		{
			OFFSET -0.175109 0.000000 0.324275
			CHANNELS 6 Xposition Yposition Zposition Xrotation Yrotation Zrotation
			JOINT arm.lower.right
			{
				OFFSET 0.000000 0.000000 -0.223750
				CHANNELS 3 Xrotation Yrotation Zrotation
				End Site
				{
					OFFSET -0.012971 0.000000 -0.197808
				}
			}
		}
	}
	JOINT leg.upper.left
	{
		OFFSET 0.077826 0.000000 0.494131
		CHANNELS 6 Xposition Yposition Zposition Xrotation Yrotation Zrotation
		JOINT leg.lower.left
		{
			OFFSET -0.002826 0.000000 -0.223750
			CHANNELS 3 Xrotation Yrotation Zrotation
			End Site
			{
				OFFSET 0.002826 0.000000 -0.269148
			}
		}
	}
	JOINT leg.upper.right
	{
		OFFSET -0.077826 0.000000 0.494131
		CHANNELS 6 Xposition Yposition Zposition Xrotation Yrotation Zrotation
		JOINT leg.lower.right
		{
			OFFSET 0.002826 0.000000 -0.223750
			CHANNELS 3 Xrotation Yrotation Zrotation
			End Site
			{
				OFFSET -0.002826 0.000000 -0.269148
			}
		}
	}
}
MOTION
Frames: 20
Frame Time: 0.041667
0.000000 0.000000 0.000000 -0.000000 0.000000 -0.000000 -0.000000 0.000000 -0.000000 -0.000000 0.000000 -0.000000 0.175109 0.000000 0.324275 -0.000000 -0.000000 0.000000 0.000000 -0.000002 0.000000 -0.175109 0.000000 0.324275 -8.398077 -9.582180 4.093389 -85.911246 15.893838 19.060083 0.077826 0.000000 0.494131 -0.049349 -0.709388 0.075642 0.329360 1.304577 0.008491 -0.077826 0.000000 0.494131 1.439632 0.845872 0.047705 -0.335194 -1.308101 0.441528 
0.000000 0.000000 0.000000 -0.000000 0.000000 -0.000000 -0.000000 -0.000000 -0.833305 -0.000000 0.000000 0.000000 0.175109 0.000000 0.324275 -0.000000 0.000000 0.000000 0.000000 -0.000001 0.000000 -0.175109 0.000000 0.324275 -8.618869 -8.491295 3.497796 -85.198222 15.695469 18.555409 0.077826 0.000000 0.494131 -0.049349 -0.709388 0.075642 0.329360 1.304577 0.008491 -0.077826 0.000000 0.494131 1.439632 0.845872 0.047705 -0.335194 -1.308101 0.441528 
0.000000 0.000000 0.000000 -0.000000 0.000000 -0.000000 -0.000000 -0.000000 -3.322808 -0.000000 0.000000 0.000000 0.175109 0.000000 0.324275 -0.000000 0.000000 -0.000000 0.000000 -0.000002 -0.000000 -0.175109 0.000000 0.324275 -9.220796 -5.202774 1.741512 -83.080290 15.066298 17.064275 0.077826 0.000000 0.494131 -0.049349 -0.709388 0.075642 0.329360 1.304577 0.008491 -0.077826 0.000000 0.494131 1.439632 0.845872 0.047705 -0.335194 -1.308101 0.441528 
0.000000 0.000000 0.000000 -0.000000 0.000000 -0.000000 -0.000000 -0.000000 -7.246462 -0.000000 0.000000 0.000000 0.175109 0.000000 0.324275 -0.000000 -0.000000 0.000001 -0.000000 -0.000002 -0.000000 -0.175109 0.000000 0.324275 -9.991894 0.055502 -0.970378 -79.783651 13.966189 14.769347 0.077826 0.000000 0.494131 -0.049349 -0.709388 0.075642 0.329360 1.304577 0.008491 -0.077826 0.000000 0.494131 1.439632 0.845872 0.047705 -0.335194 -1.308101 0.441528 
0.000000 0.000000 0.000000 -0.000000 0.000000 -0.000000 -0.000000 -0.000000 -12.027283 -0.000000 0.000000 0.000000 0.175109 0.000000 0.324275 -0.000000 -0.000000 0.000000 -0.000000 -0.000001 0.000001 -0.175109 0.000000 0.324275 -10.648941 6.547723 -4.218539 -75.843964 12.454122 12.075089 0.077826 0.000000 0.494131 -0.049349 -0.709388 0.075642 0.329360 1.304577 0.008491 -0.077826 0.000000 0.494131 1.439632 0.845872 0.047705 -0.335194 -1.308101 0.441528 
0.000000 0.000000 0.000000 -0.000000 0.000000 -0.000000 0.000000 0.000000 -16.805059 -0.000000 -0.000000 -0.000000 0.175109 0.000000 0.324275 -0.000000 -0.000000 0.000002 -0.000000 -0.000002 0.000003 -0.175109 0.000000 0.324275 -11.021099 13.072107 -7.446111 -72.003520 10.767688 9.508343 0.077826 0.000000 0.494131 -0.049349 -0.709388 0.075642 0.329360 1.304577 0.008491 -0.077826 0.000000 0.494131 1.439632 0.845872 0.047705 -0.335194 -1.308101 0.441528 
0.000000 0.000000 0.000000 -0.000000 0.000000 -0.000000 0.000000 0.000000 -20.732740 -0.000000 -0.000000 -0.000000 0.175109 0.000000 0.324275 -0.000000 -0.000000 0.000000 -0.000000 -0.000002 0.000001 -0.175109 0.000000 0.324275 -11.170954 18.409160 -10.100485 -68.934108 9.265416 7.506153 0.077826 0.000000 0.494131 -0.049349 -0.709388 0.075642 0.329360 1.304577 0.008491 -0.077826 0.000000 0.494131 1.439632 0.845872 0.047705 -0.335194 -1.308101 0.441528 
0.000000 0.000000 0.000000 -0.000000 0.000000 -0.000000 0.000000 0.000000 -23.258336 -0.000000 -0.000000 -0.000000 0.175109 0.000000 0.324275 -0.000000 -0.000000 0.000000 0.000000 -0.000002 0.000003 -0.175109 0.000000 0.324275 -11.320855 21.784108 -11.771052 -67.026040 8.261224 6.286277 0.077826 0.000000 0.494131 -0.049349 -0.709388 0.075642 0.329360 1.304577 0.008491 -0.077826 0.000000 0.494131 1.439632 0.845872 0.047705 -0.335194 -1.308101 0.441528 
0.000000 0.000000 0.000000 -0.000000 0.000000 -0.000000 -0.000000 -0.000000 -24.172053 -0.000000 0.000000 -0.000000 0.175109 0.000000 0.324275 -0.000000 0.000000 0.000000 -0.000000 -0.000002 0.000003 -0.175109 0.000000 0.324275 -11.667672 22.934059 -12.265701 -66.394240 7.916742 5.886864 0.077826 0.000000 0.494131 -0.049349 -0.709388 0.075642 0.329360 1.304577 0.008491 -0.077826 0.000000 0.494131 1.439632 0.845872 0.047705 -0.335194 -1.308101 0.441528 
0.000000 0.000000 0.000000 -0.000000 0.000000 -0.000000 0.000000 0.000000 -22.118786 -0.000000 0.000000 -0.000000 0.175109 0.000000 0.324275 -0.000000 -0.000000 0.000000 0.000000 -0.000002 -0.000001 -0.175109 0.000000 0.324275 -12.169385 22.946495 -12.012481 -67.541733 8.343212 6.353777 0.077826 0.000000 0.494131 -0.049349 -0.709388 0.075642 0.329360 1.304577 0.008491 -0.077826 0.000000 0.494131 1.439632 0.845872 0.047705 -0.335194 -1.308101 0.441528 
0.000000 0.000000 0.000000 -0.000000 0.000000 -0.000000 0.000000 0.000000 -15.642388 -0.000000 -0.000000 -0.000000 0.175109 0.000000 0.324275 -0.000000 -0.000000 0.000000 0.000000 -0.000002 0.000003 -0.175109 0.000000 0.324275 -12.720956 22.863256 -11.434339 -71.016858 9.566994 7.810198 0.077826 0.000000 0.494131 -0.049349 -0.709388 0.075642 0.329360 1.304577 0.008491 -0.077826 0.000000 0.494131 1.439632 0.845872 0.047705 -0.335194 -1.308101 0.441528 
0.000000 0.000000 0.000000 -0.000000 0.000000 -0.000000 0.000000 0.000000 -5.057830 -0.000000 0.000000 0.000000 0.175109 0.000000 0.324275 -0.000000 -0.000000 0.000000 0.000000 -0.000002 0.000000 -0.175109 0.000000 0.324275 -13.308574 22.600350 -10.525741 -76.628077 11.324221 10.283722 0.077826 0.000000 0.494131 -0.049349 -0.709388 0.075642 0.329360 1.304577 0.008491 -0.077826 0.000000 0.494131 1.439632 0.845872 0.047705 -0.335194 -1.308101 0.441528 
0.000000 0.000000 0.000000 -0.000000 0.000000 -0.000000 -0.000000 0.000000 8.155808 -0.000000 -0.000000 -0.000001 0.175109 0.000000 0.324275 -0.000000 0.000000 -0.000001 0.000000 -0.000002 -0.000001 -0.175109 0.000000 0.324275 -13.901114 22.065652 -9.336609 -83.656130 13.137962 13.560741 0.077826 0.000000 0.494131 -0.049349 -0.709388 0.075642 0.329360 1.304577 0.008491 -0.077826 0.000000 0.494131 1.439632 0.845872 0.047705 -0.335194 -1.308101 0.441528 
0.000000 0.000000 0.000000 -0.000000 0.000000 -0.000000 -0.000000 0.000000 21.358546 0.000000 0.000000 -0.000002 0.175109 0.000000 0.324275 -0.000000 0.000000 0.000000 -0.000000 -0.000002 -0.000001 -0.175109 0.000000 0.324275 -14.454028 21.191394 -7.977246 -90.828163 14.541678 17.064975 0.077826 0.000000 0.494131 -0.049349 -0.709388 0.075642 0.329360 1.304577 0.008491 -0.077826 0.000000 0.494131 1.439632 0.845872 0.047705 -0.335194 -1.308101 0.441528 
0.000000 0.000000 0.000000 -0.000000 0.000000 -0.000000 0.000000 -0.000000 31.933989 -0.000000 0.000000 0.000000 0.175109 0.000000 0.324275 -0.000000 0.000000 0.000000 -0.000000 -0.000001 0.000001 -0.175109 -0.000000 0.324275 -14.924870 19.962471 -6.584289 -96.761733 15.361604 20.053203 0.077826 0.000000 0.494131 -0.049349 -0.709388 0.075642 0.329360 1.304577 0.008491 -0.077826 0.000000 0.494131 1.439632 0.845872 0.047705 -0.335194 -1.308101 0.441528 
0.000000 0.000000 0.000000 -0.000000 0.000000 -0.000000 0.000000 -0.000000 38.441865 -0.000000 0.000000 0.000000 0.175109 0.000000 0.324275 -0.000000 -0.000000 -0.000002 -0.000001 -0.000001 -0.000005 -0.175109 0.000000 0.324275 -15.288868 18.414620 -5.271249 -100.525686 15.721620 21.978381 0.077826 0.000000 0.494131 -0.049349 -0.709388 0.075642 0.329360 1.304577 0.008491 -0.077826 0.000000 0.494131 1.439632 0.845872 0.047705 -0.335194 -1.308101 0.441528 
0.000000 0.000000 0.000000 -0.000000 0.000000 -0.000000 0.000000 -0.000000 40.577314 -0.000000 0.000000 0.000000 0.175109 0.000000 0.324275 -0.000000 -0.000000 -0.000002 0.000000 -0.000001 0.000003 -0.175109 -0.000000 0.324275 -15.541988 16.608626 -4.103817 -101.782605 15.813384 22.625753 0.077826 0.000000 0.494131 -0.049349 -0.709388 0.075642 0.329360 1.304577 0.008491 -0.077826 0.000000 0.494131 1.439632 0.845872 0.047705 -0.335194 -1.308101 0.441528 
0.000000 0.000000 0.000000 -0.000000 0.000000 -0.000000 0.000000 0.000000 38.760712 -0.000000 0.000000 0.000000 0.175109 0.000000 0.324275 -0.000000 -0.000000 0.000000 0.000000 -0.000002 -0.000000 -0.175109 0.000000 0.324275 -15.424932 13.876467 -2.928875 -101.065011 15.836413 22.466823 0.077826 0.000000 0.494131 -0.049349 -0.709388 0.075642 0.329360 1.304577 0.008491 -0.077826 0.000000 0.494131 1.439632 0.845872 0.047705 -0.335194 -1.308101 0.441528 
0.000000 0.000000 0.000000 -0.000000 0.000000 -0.000000 -0.000000 0.000000 33.341767 -0.000000 -0.000000 -0.000000 0.175109 -0.000000 0.324275 -0.000000 0.000000 0.000000 0.000000 -0.000002 -0.000002 -0.175109 0.000000 0.324275 -14.642956 9.599658 -1.570532 -98.938855 15.896070 21.991975 0.077826 0.000000 0.494131 -0.049349 -0.709388 0.075642 0.329360 1.304577 0.008491 -0.077826 0.000000 0.494131 1.439632 0.845872 0.047705 -0.335194 -1.308101 0.441528 
0.000000 0.000000 0.000000 -0.000000 0.000000 -0.000000 -0.000000 0.000000 24.996425 -0.000000 -0.000000 -0.000000 0.175109 0.000000 0.324275 -0.000000 0.000000 0.000000 -0.000000 -0.000002 0.000003 -0.175109 0.000000 0.324275 -13.258725 4.244392 -0.051662 -95.691968 15.955141 21.262656 0.077826 0.000000 0.494131 -0.049349 -0.709388 0.075642 0.329360 1.304577 0.008491 -0.077826 0.000000 0.494131 1.439632 0.845872 0.047705 -0.335194 -1.308101 0.441528 
